<?xml version="1.0" encoding="utf-8"?>
<!-- Generator: Adobe Illustrator 20.0.0, SVG Export Plug-In . SVG Version: 6.00 Build 0)  -->
<svg version="1.1" id="Layer_1" xmlns="http://www.w3.org/2000/svg" xmlns:xlink="http://www.w3.org/1999/xlink" x="0px" y="0px"
	 viewBox="0 0 140.3 140.3" style="enable-background:new 0 0 140.3 140.3;" xml:space="preserve">
<style type="text/css">
	.st0{fill:#FFFFFF;}
</style>
<g>
	<path class="st0" d="M66.5,112.5c-0.7,0-1.3,0.7-1.3,1.6c0,0.8,0.5,1.4,1.2,1.4c0.6,0,1-0.3,1.3-0.7c0-0.1,0.1-0.2,0.1-0.3
		C67.8,113.3,67.4,112.5,66.5,112.5z"/>
	<path class="st0" d="M23,40.4c0.1-0.2,0.1-0.4,0-0.6c-0.1-0.2-0.2-0.3-0.4-0.5c-0.3-0.2-0.6-0.2-0.9-0.1c-0.3,0.1-0.6,0.5-0.9,1.1
		l-0.6,1l1.7,1.1l0.4-0.7C22.7,41.1,22.9,40.7,23,40.4z"/>
	<path class="st0" d="M102.1,24.1c0.3,0,0.6-0.2,0.8-0.6c0.2-0.4,0.3-0.7,0.1-0.9s-0.4-0.5-0.9-0.8l-1-0.6l-1.2,2l1,0.6
		C101.4,24,101.8,24.1,102.1,24.1z"/>
	<path class="st0" d="M30.1,27.3c-0.1-0.2-0.2-0.5-0.5-0.7c-0.3-0.3-0.6-0.5-1-0.4s-0.7,0.3-1.2,0.7l-0.6,0.6l1.9,1.9l0.5-0.5
		c0.4-0.4,0.7-0.7,0.8-1C30.2,27.7,30.2,27.5,30.1,27.3z"/>
	<path class="st0" d="M34.3,112.7l-1-0.8l-1.4,1.6l0.9,0.8c0.3,0.2,0.5,0.4,0.7,0.5c0.2,0.1,0.4,0.1,0.5,0c0.2-0.1,0.3-0.2,0.5-0.4
		c0.3-0.3,0.4-0.6,0.3-0.8S34.7,113.1,34.3,112.7z"/>
	<path class="st0" d="M108.3,28.9c0.5-0.1,1.1-0.6,1.7-1.3c0.6-0.7,1-1.3,1.1-1.8c0.1-0.5-0.1-1-0.6-1.4c-0.5-0.4-1-0.6-1.5-0.4
		c-0.5,0.2-1.1,0.6-1.7,1.3s-1,1.3-1.1,1.8s0.1,1,0.6,1.4C107.3,29,107.8,29.1,108.3,28.9z"/>
	<polygon class="st0" points="92.2,13.7 89.9,16.4 92,17.2 	"/>
	<path class="st0" d="M84.1,16.1c0.3-0.1,0.5-0.3,0.6-0.8c0.1-0.3,0.1-0.5,0-0.7c-0.1-0.2-0.2-0.3-0.4-0.5s-0.6-0.2-1.1-0.4
		l-0.9-0.2l-0.5,2.2l1,0.2C83.4,16.2,83.8,16.2,84.1,16.1z"/>
	<path class="st0" d="M19.5,37.9c-0.3-0.2-0.5-0.2-0.7,0s-0.5,0.4-0.7,0.8l-0.5,0.9l1.5,0.9l0.5-0.9c0.3-0.4,0.4-0.8,0.4-1
		C19.9,38.4,19.8,38.1,19.5,37.9z"/>
	<polygon class="st0" points="91.5,125.4 93.5,124.6 91.3,121.9 	"/>
	<polygon class="st0" points="128,82.7 124.6,83 127.6,84.8 	"/>
	<path class="st0" d="M70.2,0C31.5,0,0,31.5,0,70.2s31.5,70.2,70.2,70.2s70.2-31.5,70.2-70.2S108.9,0,70.2,0z M131.7,60.5l-5.6,0.7
		l6,2.3l0.2,1.9l-8,1l-0.2-1.5l6-0.8l-6.4-2.4l-0.2-1.7l8-1L131.7,60.5z M131.5,73.2c0,1.3-1.1,2.4-2.4,2.4c-1.3,0-2.4-1.1-2.4-2.4
		c0-1.3,1.1-2.4,2.4-2.4C130.5,70.8,131.5,71.9,131.5,73.2z M129.7,51.7l-6.4,1.8l0.8,2.9l6.4-1.8l0.4,1.6l-6.3,1.8l0.3,0.9
		l-2.8,0.8l-0.4-1.6l1.4-0.4l-1.5-5.4l7.8-2.2L129.7,51.7z M126.5,43.5l-2.8,3.3l4.3-0.1l0.7,1.6l-7.3-0.1c-0.5,0-0.8,0-1.1-0.1
		s-0.5-0.2-0.7-0.4c-0.2-0.2-0.4-0.4-0.5-0.8c-0.1-0.1-0.1-0.4-0.2-0.8c-0.1-0.4-0.1-0.7-0.1-0.9l1.4-0.1c0,0.2,0,0.4,0.1,0.6
		c0,0.3,0.1,0.4,0.1,0.5c0.1,0.2,0.2,0.3,0.4,0.4c0.2,0.1,0.6,0.1,1.1,0.1l4.1-4.9L126.5,43.5z M120.6,36.7l1.5-0.9l2.8,4.4
		l-6.9,4.3l-0.9-1.4l5.7-3.6l-1-1.7l-0.6,0.4c-1.8,1.1-3.3,1.8-4.3,2c-1.1,0.2-1.8,0-2.3-0.8c-0.3-0.5-0.5-1-0.5-1.5l1.4-0.2
		c0,0.3,0.1,0.5,0.2,0.6c0.1,0.2,0.4,0.3,0.8,0.3c0.4,0,0.9-0.2,1.5-0.5C118.7,37.8,119.6,37.3,120.6,36.7z M67.8,115.4
		c-0.4,0.4-0.9,0.7-1.5,0.7c-1.2,0-1.9-0.9-1.9-2c0-1.2,0.9-2.3,2.2-2.3c1.3,0,2.1,1.1,2.1,2.7c0,1.4-0.5,2.4-1.1,3
		c-0.5,0.5-1.2,0.8-1.9,0.9c-0.3,0.1-0.6,0.1-0.8,0.1v-0.7c0.2,0,0.4,0,0.7,0c0.5-0.1,1-0.3,1.4-0.6
		C67.4,116.7,67.7,116.2,67.8,115.4L67.8,115.4z M67.9,108.4L68,92.2L32.2,65.5c0.2-1.5,0.4-3,0.8-4.4l37.3,27.6l37.1-27.9
		c0.4,1.4,0.6,2.9,0.8,4.3L72.7,92.2l-0.1,16.2c-0.8,0-1.5,0.1-2.3,0.1C69.5,108.5,68.7,108.5,67.9,108.4z M84.3,50l0,20.9l-3.7,2.7
		l-4.7,3.5H64.6l-4.7-3.5h2.7c0-3.1,1.4-5.1,2.5-6.2c1.4-1.4,3.3-2.2,5.2-2.2c3.8,0,7.6,2.9,7.6,8.4h2.3V52.4
		c-6.8-3-9.4-6.2-10.2-9.8c-1,3.7-4.2,6.7-10.1,9.8v21.3l-4.5-3.3l0-20.5l0.1,0C64.5,45.1,66.8,43,66.7,32c1.2-0.1,2.4-0.2,3.6-0.2
		c0.9,0,1.8,0,2.6,0.1C72.7,45.4,76.9,47.3,84.3,50z M80.3,41.5c-1.5-2.3-2.3-5.2-2.5-8.9c1.7,0.3,3.4,0.8,5,1.4
		c0.9,5,4.4,8.5,10.8,11l0.1,0v19l-4.4,3.3V47.2C84.9,46,82.1,44.2,80.3,41.5z M51.1,47.2v19.9l-4.4-3.3V45l0.1,0
		C54,42.1,57,39.1,57.6,34c1.5-0.5,3.1-1,4.7-1.3C61.6,40.5,57.8,45.3,51.1,47.2z M77.6,93.3L77.6,93.3l31-23.6c0,0.2,0,0.4,0,0.5
		c0,1.6-0.1,3.2-0.3,4.8L82.2,95v11.5c-1.5,0.5-3.1,0.9-4.7,1.2V93.3z M107,81c-0.8,2.7-1.9,5.2-3.2,7.6l-12,9.2v4
		c-1.5,1-3,1.9-4.7,2.7v-8.4l0.1-0.1L107,81z M86.4,110.5c15.9-6.4,27.2-22.1,27.2-40.3c0-24-19.5-43.5-43.5-43.5
		c-24,0-43.5,19.5-43.5,43.5c0,17.9,10.9,33.4,26.5,40v3.2C36,106.5,23.7,89.8,23.7,70.2c0-25.6,20.8-46.4,46.4-46.4
		s46.4,20.8,46.4,46.4c0,19.9-12.6,36.9-30.2,43.5V110.5z M36.5,88.3c-1.3-2.4-2.3-4.9-3.1-7.6l20.1,15.4v8.5
		c-1.6-0.8-3.2-1.7-4.7-2.7v-4.1L36.5,88.3z M117.8,30l-4.4,3.9c-0.6,0.6-1.2,0.8-1.8,0.7c-0.6-0.1-1.2-0.5-1.8-1.1
		c-0.1-0.1-0.3-0.4-0.5-0.7c-0.2-0.3-0.3-0.6-0.4-0.8l1.4-0.6c0,0.1,0.1,0.3,0.2,0.6c0.1,0.3,0.2,0.4,0.3,0.6
		c0.2,0.2,0.4,0.3,0.5,0.4c0.1,0,0.3,0,0.5-0.1c0.2-0.1,0.4-0.3,0.7-0.5l4.1-3.6L117.8,30z M108.7,22.4c0.9-0.2,1.8,0.1,2.7,0.9
		c0.9,0.8,1.3,1.7,1.3,2.6c-0.1,0.9-0.5,1.9-1.4,2.9c-0.9,1.1-1.9,1.7-2.8,1.8c-0.9,0.1-1.8-0.2-2.6-0.9c-0.9-0.8-1.3-1.7-1.3-2.6
		c0.1-0.9,0.5-1.9,1.4-2.9C106.9,23.1,107.8,22.5,108.7,22.4z M98.2,14.3l1.4,0.9l-1.5,2.5l2.4,1.4l1.5-2.5l1.4,0.9l-1.5,2.5
		l1.1,0.6c1,0.6,1.5,1.2,1.7,1.8c0.2,0.6,0.1,1.3-0.4,2c-0.5,0.8-1.1,1.2-1.7,1.3s-1.5-0.1-2.4-0.7l-2.5-1.5l2-3.2l-2.4-1.4l-2,3.2
		L94,21.2L98.2,14.3z M93.8,12.5L93.3,21l-1.6-0.6l0.1-1.7L89,17.6l-1.1,1.3l-1.5-0.6l5.4-6.6L93.8,12.5z M81.7,8.9l5.4,1.3
		l-0.3,1.3L83,10.6l-0.4,1.7l1.1,0.3c1.1,0.3,1.9,0.7,2.3,1.2s0.6,1.2,0.4,2.1c-0.2,0.8-0.6,1.3-1.2,1.6c-0.6,0.3-1.5,0.3-2.6,0
		l-2.8-0.7L81.7,8.9z M69.8,7.8l1.8,0.1l1.7,4L75.1,8l1.7,0.1l-3.3,6.5c-0.2,0.4-0.4,0.7-0.6,1c-0.2,0.2-0.4,0.4-0.7,0.5
		s-0.6,0.1-1,0.1c-0.2,0-0.4-0.1-0.8-0.1s-0.7-0.2-0.9-0.3l0.5-1.3c0.1,0.1,0.3,0.2,0.6,0.2c0.2,0.1,0.4,0.1,0.5,0.1
		c0.2,0,0.4-0.1,0.5-0.2c0.2-0.1,0.4-0.5,0.6-1L69.8,7.8z M65.4,8l0.2,1.5l-2.5,0.3l0.8,6.5l-1.6,0.2L61.5,10L59,10.3l-0.2-1.5
		L65.4,8z M57.4,9.1l0.4,1.4l-3.5,0.9l0.4,1.7l3-0.8l0.4,1.4l-3,0.8l0.5,1.9l3.5-0.9l0.4,1.5l-5.1,1.3l-2-7.9L57.4,9.1z M50.5,11
		l0.6,1.4l-2.3,0.9l2.4,6.1L49.6,20l-2.4-6.1l-2.3,0.9l-0.6-1.4L50.5,11z M38.3,16.6l2.8,4.9l-0.1-6.4l1.7-0.9l4,7.1L45.2,22
		l-2.9-5.3l0.2,6.8l-1.5,0.9l-4-7.1L38.3,16.6z M32.4,20.4c0.5-0.4,1-0.7,1.5-0.8c0.5-0.1,0.9-0.1,1.3,0c0.4,0.1,0.7,0.4,1,0.8
		c0.3,0.4,0.4,0.7,0.4,1.1c0,0.4-0.1,0.7-0.3,1c0.9-0.2,1.6,0,2.1,0.7c0.5,0.7,0.6,1.3,0.5,2s-0.7,1.3-1.5,1.9
		c-0.6,0.4-1.2,0.7-1.8,0.8c-0.6,0.1-1.2,0-1.8-0.2l0.6-1.5c0.8,0.3,1.5,0.3,2.2-0.2c0.3-0.2,0.5-0.5,0.6-0.9c0.1-0.3,0-0.7-0.2-0.9
		c-0.2-0.3-0.5-0.5-0.8-0.5c-0.3,0-0.6,0.1-0.9,0.4l-1.4,1L33.3,24l1.4-1.1c0.3-0.2,0.4-0.4,0.5-0.7c0-0.3-0.1-0.5-0.3-0.8
		c-0.2-0.2-0.4-0.3-0.8-0.3c-0.3,0-0.7,0.2-1,0.4c-0.2,0.2-0.5,0.4-0.7,0.7c-0.2,0.3-0.4,0.6-0.5,1.1l-1.4-0.5
		C30.9,21.9,31.5,21.1,32.4,20.4z M26.9,25.4c0.7-0.6,1.3-1,2-1c0.7,0,1.3,0.3,2,1c0.7,0.7,1,1.4,1,2c0,0.7-0.4,1.3-1.1,2.1l-1,0.9
		l1.8,1.8l-1.2,1.2l-5.7-5.8L26.9,25.4z M23.2,29.1l1.1,0.9l-2.3,2.8l1.4,1.1l1.9-2.4l1.1,0.9l-1.9,2.4l1.5,1.2l2.3-2.8l1.2,0.9
		l-3.3,4.1l-6.3-5.1L23.2,29.1z M16.9,37.8c0.5-0.9,1.1-1.4,1.5-1.7s1-0.2,1.6,0.2c0.4,0.3,0.7,0.6,0.9,1s0.1,0.8-0.1,1.3
		c0.4-0.5,0.9-0.8,1.3-0.9c0.4-0.1,0.9,0,1.4,0.3c0.7,0.4,1.1,1,1.1,1.6c0,0.7-0.2,1.4-0.7,2.3l-1.6,2.6l-6.9-4.2L16.9,37.8z
		 M12.3,47.1l5.2,2.2l-4-5l0.8-1.8l7.4,3.2L21,47.2l-5.5-2.4l4.3,5.3l-0.7,1.6l-7.4-3.2L12.3,47.1z M9.5,55.7l3,0.8l0.8-3.1l-3-0.8
		l0.4-1.6l7.8,2.1l-0.4,1.6l-3.3-0.9l-0.8,3.1l3.3,0.9L17,59.4l-7.8-2.1L9.5,55.7z M8.1,64.4l4.2-1.4l-3.7-2.1l0.2-1.7l6.2,3.8
		c0.4,0.2,0.7,0.5,0.9,0.7c0.2,0.2,0.4,0.5,0.4,0.7c0.1,0.2,0.1,0.6,0,1c0,0.2-0.1,0.4-0.2,0.8c-0.1,0.4-0.2,0.7-0.4,0.9l-1.2-0.6
		c0.1-0.1,0.2-0.3,0.3-0.6c0.1-0.2,0.1-0.4,0.2-0.5c0-0.2,0-0.4-0.2-0.5c-0.1-0.2-0.4-0.4-0.9-0.6l-6,2.2L8.1,64.4z M11.5,70.8
		c1.3,0,2.4,1.1,2.4,2.4c0,1.3-1.1,2.4-2.4,2.4c-1.3,0-2.4-1.1-2.4-2.4C9.1,71.9,10.2,70.8,11.5,70.8z M9.5,84.8
		c-0.3-1.1-0.2-2,0.2-2.6s1.2-1.1,2.5-1.4l4.5-1.1l0.4,1.6l-4.4,1.1c-0.5,0.1-0.9,0.3-1.2,0.5c-0.3,0.2-0.5,0.4-0.6,0.6
		c-0.1,0.3-0.1,0.6,0,1c0.1,0.6,0.4,1,0.8,1.2c0.4,0.2,1,0.2,1.7,0l4.4-1.1l0.4,1.6l-4.5,1.1c-1.2,0.3-2.2,0.3-2.8-0.1
		S9.7,85.9,9.5,84.8z M13,94.9l4.2-4.9l-5.3,2.2l-0.6-1.5l7.4-3l0.8,2l-4,4.6l5-2l0.6,1.5l-7.4,3L13,94.9z M16.7,102.1l-1.9-3.4
		l1.1-0.6l0.5,1l4.8-2.7l-0.5-1l1.1-0.6l1.9,3.4l-1.1,0.6l-0.5-1l-4.8,2.7l0.5,1L16.7,102.1z M19.9,106.9l-1.1-1.6l5.1-6.6l1,1.3
		L21,105l5.9-2l0.9,1.3L19.9,106.9z M26.1,114.3l-3.5-3.8l5.9-5.4l3.5,3.8l-1.1,1l-2.4-2.6l-1.3,1.2l2,2.2l-1.1,1l-2-2.2l-1.4,1.3
		l2.4,2.6L26.1,114.3z M33.2,116.2l-0.4,3.8l-1.4-1.2l0.4-3.6l-0.6-0.5l-2,2.3l-1.2-1.1l5.2-6.1l2.2,1.9c0.8,0.7,1.2,1.3,1.4,1.9
		c0.1,0.6-0.1,1.2-0.6,1.9c-0.4,0.5-0.9,0.8-1.4,1S33.6,116.4,33.2,116.2z M38.8,123.5c-0.7,0.1-1.4-0.2-2.3-0.7
		c-0.6-0.4-1.1-0.8-1.4-1.3c-0.3-0.5-0.5-1-0.5-1.6l1.6-0.1c0,0.3,0.1,0.6,0.1,0.8c0.1,0.2,0.2,0.4,0.3,0.6c0.2,0.2,0.4,0.4,0.6,0.5
		c0.4,0.2,0.7,0.4,1,0.4c0.3,0,0.5-0.1,0.7-0.4c0.1-0.1,0.1-0.3,0.1-0.4c0-0.1-0.1-0.3-0.2-0.5c-0.1-0.2-0.3-0.4-0.6-0.7
		c-0.3-0.3-0.6-0.6-0.8-0.9c-0.2-0.3-0.4-0.6-0.6-0.9c-0.1-0.3-0.2-0.6-0.2-0.9c0-0.3,0.1-0.6,0.4-1c0.4-0.6,0.9-1,1.6-1.1
		c0.7-0.1,1.4,0.1,2.2,0.6c1.2,0.7,1.7,1.7,1.7,2.8l-1.6,0.1c0-0.4-0.1-0.7-0.2-1c-0.2-0.3-0.4-0.5-0.7-0.7s-0.6-0.3-0.9-0.3
		c-0.3,0-0.5,0.1-0.6,0.4c-0.1,0.2-0.1,0.5,0,0.7c0.1,0.2,0.4,0.6,0.9,1c0.2,0.3,0.5,0.5,0.7,0.8s0.4,0.5,0.5,0.8s0.2,0.6,0.1,0.9
		c0,0.3-0.2,0.7-0.4,1.1C40,123,39.5,123.4,38.8,123.5z M46.3,120.3l-2.4,4.9l1,0.5l-0.6,1.1l-3.5-1.7l0.6-1.1l1,0.5l2.4-4.9l-1-0.5
		l0.6-1.1l3.5,1.7l-0.6,1.1L46.3,120.3z M54,123.6l-2.3-0.9l-2.3,6.1l-1.5-0.6l2.3-6.1l-2.3-0.9l0.5-1.4l6.2,2.3L54,123.6z
		 M57.6,128l-0.7,3l-1.6-0.4l0.7-2.9l-1.3-5.4l1.7,0.4l0.8,3.6l2.3-2.9l1.7,0.4L57.6,128z M62,118.4h-0.8v-5.7h0l-1.1,0.6l-0.2-0.7
		l1.4-0.8H62V118.4z M63.1,107.8c-1.6-0.3-3.1-0.7-4.7-1.2V95L32.2,74.9c-0.2-1.6-0.3-3.1-0.3-4.8c0-0.2,0-0.4,0-0.5l31.2,23.7
		V107.8z M69.7,131.6c-0.6,0.7-1.5,1-2.6,0.9c-1.2-0.1-2-0.5-2.6-1.2c-0.5-0.8-0.7-1.8-0.7-3.1c0.1-1.3,0.4-2.3,1-3s1.5-1,2.7-1
		c1.2,0.1,2,0.5,2.6,1.2c0.5,0.8,0.7,1.8,0.7,3.1C70.6,129.9,70.3,130.9,69.7,131.6z M70,118.4l2.8-5.7v0h-3.2v-0.7h4.1v0.6
		l-2.8,5.9H70z M74,127.5l2.9-0.2l0.1,1.4l-2.9,0.2l0.3,3.3l-1.6,0.1l-0.6-8l5.1-0.4l0.1,1.5l-3.5,0.3L74,127.5z M76.2,118.5
		c-0.7,0-1.3-0.2-1.6-0.4l0.2-0.7c0.3,0.2,0.8,0.4,1.4,0.4c0.8,0,1.5-0.5,1.5-1.4c0-0.8-0.6-1.4-1.9-1.4c-0.4,0-0.7,0-0.9,0.1
		l0.4-3.1h3.1v0.7h-2.5l-0.2,1.7c0.1,0,0.3,0,0.5,0c0.5,0,1,0.1,1.4,0.3c0.5,0.3,0.9,0.8,0.9,1.7C78.7,117.6,77.7,118.5,76.2,118.5z
		 M87.6,129.4c-0.4,0.5-1.1,0.9-2.1,1.1l-2.9,0.7l-2-7.8l2.7-0.7c1-0.3,1.7-0.3,2.2-0.1s0.8,0.6,1,1.2c0.1,0.5,0.1,0.9-0.1,1.3
		s-0.5,0.7-0.9,0.9c0.7-0.1,1.2,0,1.6,0.3c0.4,0.2,0.6,0.6,0.8,1.2C88.2,128.3,88.1,128.9,87.6,129.4z M95.6,127l-1.1-1.3l-2.9,1.2
		l0.1,1.7l-1.5,0.6l-0.6-8.4l2-0.8l5.5,6.4L95.6,127z M103,123.1l-5.4-3.4l2.9,4.9l-1.4,0.8l-4.1-6.9l1.8-1.1l5.1,3.3l-2.8-4.6
		l1.4-0.8l4.1,6.9L103,123.1z M108.8,118.5c-0.1,0.5-0.5,1.1-1.3,1.7c-0.2,0.1-0.4,0.3-0.7,0.4c-0.3,0.2-0.6,0.3-0.8,0.4l-0.5-1.5
		c0.1,0,0.3-0.1,0.6-0.2s0.5-0.2,0.6-0.3c0.2-0.2,0.4-0.3,0.4-0.5c0.1-0.1,0-0.3,0-0.5c-0.1-0.2-0.2-0.4-0.4-0.7l-3.3-4.3l1.3-1
		l3.6,4.6C108.8,117.3,109,117.9,108.8,118.5z M114.9,113.5l-1.5-0.8l-2.2,2.1l0.8,1.5l-1.2,1.1l-3.7-7.6l1.5-1.5l7.5,3.9
		L114.9,113.5z M119,108.8l-6.4-4.8l1-1.3l5.2,3.9l2-2.7l1.2,0.9L119,108.8z M124.7,100.6c-0.6,1-1.2,1.6-1.9,1.8
		c-0.7,0.2-1.6,0-2.7-0.6l-4.1-2.3l0.8-1.4l4,2.2c0.5,0.3,0.9,0.4,1.2,0.5c0.3,0.1,0.6,0,0.8-0.1c0.2-0.1,0.5-0.4,0.7-0.8
		c0.3-0.5,0.4-1,0.2-1.4c-0.2-0.4-0.6-0.8-1.3-1.1l-4-2.2l0.8-1.4l4.1,2.3c1.1,0.6,1.8,1.3,2,2C125.4,98.7,125.3,99.6,124.7,100.6z
		 M128.9,91l-3.9,0.9l0.4,0.7l2.6,1l-0.6,1.5l-7.5-2.9l0.6-1.5l2.9,1.1l-2-3.6l0.7-1.8l2.2,4l5.4-1.4L128.9,91z M131.2,82.4
		l-1.7,0.1l-0.7,3l1.5,0.9l-0.4,1.6l-7.2-4.4l0.5-2.1l8.4-0.8L131.2,82.4z"/>
	<polygon class="st0" points="112.1,112 109,110.3 110.5,113.5 	"/>
	<path class="st0" d="M85.8,127.1c-0.3-0.1-0.7,0-1.4,0.1l-1.1,0.3l0.5,1.9l0.8-0.2c0.6-0.2,1-0.3,1.3-0.4c0.2-0.1,0.4-0.3,0.4-0.4
		s0.1-0.4,0-0.6C86.3,127.4,86.1,127.2,85.8,127.1z"/>
	<path class="st0" d="M67.4,125.6c-0.6,0-1.1,0.2-1.4,0.6c-0.3,0.4-0.5,1.1-0.5,2.1c0,0.9,0.1,1.6,0.3,2.1c0.3,0.4,0.7,0.7,1.3,0.7
		c0.6,0,1.1-0.2,1.4-0.6c0.3-0.4,0.5-1.1,0.5-2.1c0-0.9-0.1-1.6-0.3-2.1C68.5,125.9,68,125.7,67.4,125.6z"/>
	<path class="st0" d="M85,125.4c0.2-0.2,0.2-0.4,0.2-0.8c-0.1-0.3-0.2-0.5-0.5-0.5c-0.2-0.1-0.6,0-1.1,0.1l-1,0.3l0.4,1.7l1-0.2
		C84.5,125.7,84.8,125.6,85,125.4z"/>
	<path class="st0" d="M70.1,67.7c-2.8,0-4.3,2-4.3,5.9h8.7C74.5,69.8,73,67.7,70.1,67.7z"/>
</g>
</svg>
